<svg width="7" height="7" viewBox="0 0 7 7" fill="none" xmlns="http://www.w3.org/2000/svg">
<path d="M3.5 0.5C3.59946 0.5 3.69484 0.539509 3.76517 0.609835L6.01516 2.85984C6.16161 3.00628 6.16161 3.24372 6.01516 3.39017C5.86872 3.53661 5.63128 3.53661 5.48483 3.39017L3.875 1.78033L3.875 6.125C3.875 6.33211 3.70711 6.5 3.5 6.5C3.29289 6.5 3.125 6.33211 3.125 6.125L3.125 1.78033L1.51516 3.39017C1.36872 3.53661 1.13128 3.53661 0.984835 3.39017C0.838388 3.24372 0.838388 3.00628 0.984835 2.85984L3.23484 0.609835C3.30516 0.539509 3.40054 0.5 3.5 0.5Z" fill="white"/>
</svg>
