<svg width="34" height="30" viewBox="0 0 34 30" fill="none" xmlns="http://www.w3.org/2000/svg">
<path d="M20 8C20.7956 8 21.5587 8.31607 22.1213 8.87868C22.6839 9.44129 23 10.2044 23 11V13H21V25C21 25.7956 20.6839 26.5587 20.1213 27.1213C19.5587 27.6839 18.7956 28 18 28H4C3.20435 28 2.44129 27.6839 1.87868 27.1213C1.31607 26.5587 1 25.7956 1 25V23H17V25C17 25.2449 17.09 25.4813 17.2527 25.6644C17.4155 25.8474 17.6397 25.9643 17.883 25.993L18 26C18.2449 26 18.4813 25.91 18.6644 25.7473C18.8474 25.5845 18.9643 25.3603 18.993 25.117L19 25V21H3V11C3 10.2044 3.31607 9.44129 3.87868 8.87868C4.44129 8.31607 5.20435 8 6 8H20Z" fill="white"/>
<circle cx="24" cy="10" r="10" fill="#D23D2B"/>
<path d="M22.5131 12.14C23.2811 11.476 23.8851 10.932 24.3251 10.508C24.7731 10.076 25.1451 9.628 25.4411 9.164C25.7371 8.7 25.8851 8.236 25.8851 7.772C25.8851 7.292 25.7691 6.916 25.5371 6.644C25.3131 6.372 24.9571 6.236 24.4691 6.236C23.9971 6.236 23.6291 6.388 23.3651 6.692C23.1091 6.988 22.9731 7.388 22.9571 7.892H21.6371C21.6611 6.98 21.9331 6.284 22.4531 5.804C22.9811 5.316 23.6491 5.072 24.4571 5.072C25.3291 5.072 26.0091 5.312 26.4971 5.792C26.9931 6.272 27.2411 6.912 27.2411 7.712C27.2411 8.288 27.0931 8.844 26.7971 9.38C26.5091 9.908 26.1611 10.384 25.7531 10.808C25.3531 11.224 24.8411 11.708 24.2171 12.26L23.6771 12.74H27.4811V13.88H21.6491V12.884L22.5131 12.14Z" fill="white"/>
</svg>
