<svg width="24" height="24" viewBox="0 0 24 24" fill="none" xmlns="http://www.w3.org/2000/svg">
<path d="M6.375 2C6.54076 2 6.69973 2.06585 6.81694 2.18306C6.93415 2.30027 7 2.45924 7 2.625V3.25H17V2.625C17 2.45924 17.0658 2.30027 17.1831 2.18306C17.3003 2.06585 17.4592 2 17.625 2C17.7908 2 17.9497 2.06585 18.0669 2.18306C18.1842 2.30027 18.25 2.45924 18.25 2.625V3.25H19.5C20.163 3.25 20.7989 3.51339 21.2678 3.98223C21.7366 4.45107 22 5.08696 22 5.75V19.5C22 20.163 21.7366 20.7989 21.2678 21.2678C20.7989 21.7366 20.163 22 19.5 22H4.5C3.83696 22 3.20107 21.7366 2.73223 21.2678C2.26339 20.7989 2 20.163 2 19.5V5.75C2 5.08696 2.26339 4.45107 2.73223 3.98223C3.20107 3.51339 3.83696 3.25 4.5 3.25H5.75V2.625C5.75 2.45924 5.81585 2.30027 5.93306 2.18306C6.05027 2.06585 6.20924 2 6.375 2V2ZM18.8175 5.75H5.18125C4.80625 5.75 4.5 6.03 4.5 6.375V7.625C4.5 7.97 4.805 8.25 5.18125 8.25H18.8188C19.1938 8.25 19.5 7.97 19.5 7.625V6.375C19.5 6.03 19.195 5.75 18.8175 5.75ZM15.5675 13.0675C15.6849 12.9501 15.7508 12.791 15.7508 12.625C15.7508 12.459 15.6849 12.2999 15.5675 12.1825C15.4501 12.0651 15.291 11.9992 15.125 11.9992C14.959 11.9992 14.7999 12.0651 14.6825 12.1825L11.375 15.4913L9.9425 14.0575C9.88439 13.9994 9.8154 13.9533 9.73948 13.9218C9.66356 13.8904 9.58218 13.8742 9.5 13.8742C9.41782 13.8742 9.33644 13.8904 9.26052 13.9218C9.1846 13.9533 9.11561 13.9994 9.0575 14.0575C8.99939 14.1156 8.95329 14.1846 8.92185 14.2605C8.8904 14.3364 8.87421 14.4178 8.87421 14.5C8.87421 14.5822 8.8904 14.6636 8.92185 14.7395C8.95329 14.8154 8.99939 14.8844 9.0575 14.9425L10.9325 16.8175C10.9906 16.8757 11.0595 16.9219 11.1355 16.9534C11.2114 16.9849 11.2928 17.0011 11.375 17.0011C11.4572 17.0011 11.5386 16.9849 11.6145 16.9534C11.6905 16.9219 11.7594 16.8757 11.8175 16.8175L15.5675 13.0675Z" fill="white"/>
</svg>
