<svg width="18" height="18" viewBox="0 0 18 18" fill="none" xmlns="http://www.w3.org/2000/svg">
<path fill-rule="evenodd" clip-rule="evenodd" d="M5.78025 16.7197C5.67536 16.8246 5.54174 16.896 5.39627 16.9249C5.25081 16.9539 5.10003 16.939 4.96301 16.8823C4.82598 16.8255 4.70886 16.7294 4.62645 16.6061C4.54404 16.4828 4.50003 16.3378 4.5 16.1895V15H3.75C3.35218 15 2.97064 14.842 2.68934 14.5607C2.40804 14.2794 2.25 13.8978 2.25 13.5V6.75C2.25 6.35218 2.40804 5.97064 2.68934 5.68934C2.97064 5.40804 3.35218 5.25 3.75 5.25H15C15.3978 5.25 15.7794 5.40804 16.0607 5.68934C16.342 5.97064 16.5 6.35218 16.5 6.75V13.5C16.5 13.8978 16.342 14.2794 16.0607 14.5607C15.7794 14.842 15.3978 15 15 15H7.5L5.78025 16.7197Z" stroke="#4CD964" stroke-linecap="round"/>
<path d="M9.375 4.875V4.125" stroke="#4CD964" stroke-linecap="square"/>
<path d="M6.375 11.25C6.99632 11.25 7.5 10.7463 7.5 10.125C7.5 9.50368 6.99632 9 6.375 9C5.75368 9 5.25 9.50368 5.25 10.125C5.25 10.7463 5.75368 11.25 6.375 11.25Z" fill="#4CD964"/>
<path d="M12.375 11.25C12.9963 11.25 13.5 10.7463 13.5 10.125C13.5 9.50368 12.9963 9 12.375 9C11.7537 9 11.25 9.50368 11.25 10.125C11.25 10.7463 11.7537 11.25 12.375 11.25Z" fill="#4CD964"/>
<path d="M9.375 3.75C9.99632 3.75 10.5 3.24632 10.5 2.625C10.5 2.00368 9.99632 1.5 9.375 1.5C8.75368 1.5 8.25 2.00368 8.25 2.625C8.25 3.24632 8.75368 3.75 9.375 3.75Z" stroke="#4CD964"/>
<path d="M10.5 13.125H8.25C8.04289 13.125 7.875 13.2929 7.875 13.5C7.875 13.7071 8.04289 13.875 8.25 13.875H10.5C10.7071 13.875 10.875 13.7071 10.875 13.5C10.875 13.2929 10.7071 13.125 10.5 13.125Z" stroke="#4CD964"/>
<path d="M6 12.75C4.75725 12.75 3.75 11.5747 3.75 10.125C3.75 8.67525 4.75725 7.5 6 7.5H12.75C13.9927 7.5 15 8.67525 15 10.125C15 11.5747 13.9927 12.75 12.75 12.75" stroke="#4CD964" stroke-linecap="round"/>
</svg>
