<svg width="15" height="18" viewBox="0 0 15 18" fill="none" xmlns="http://www.w3.org/2000/svg">
<path d="M13.66 8.2C13.43 7.9 13.15 7.64 12.89 7.38C12.22 6.78 11.46 6.35 10.82 5.72C9.33 4.26 9 1.85 9.95 0C9 0.23 8.17 0.75 7.46 1.32C4.87 3.4 3.85 7.07 5.07 10.22C5.11 10.32 5.15 10.42 5.15 10.55C5.15 10.77 5 10.97 4.8 11.05C4.57 11.15 4.33 11.09 4.14 10.93C4.08291 10.8828 4.03539 10.8251 4 10.76C2.87 9.33 2.69 7.28 3.45 5.64C1.78 7 0.870004 9.3 1 11.47C1.06 11.97 1.12 12.47 1.29 12.97C1.43 13.57 1.7 14.17 2 14.7C3.08 16.43 4.95 17.67 6.96 17.92C9.1 18.19 11.39 17.8 13.03 16.32C14.86 14.66 15.5 12 14.56 9.72L14.43 9.46C14.22 9 13.66 8.2 13.66 8.2ZM10.5 14.5C10.22 14.74 9.76 15 9.4 15.1C8.28 15.5 7.16 14.94 6.5 14.28C7.69 14 8.4 13.12 8.61 12.23C8.78 11.43 8.46 10.77 8.33 10C8.21 9.26 8.23 8.63 8.5 7.94C8.69 8.32 8.89 8.7 9.13 9C9.9 10 11.11 10.44 11.37 11.8C11.41 11.94 11.43 12.08 11.43 12.23C11.46 13.05 11.1 13.95 10.5 14.5Z" fill="#D23D2B"/>
</svg>
