<svg width="20" height="23" viewBox="0 0 20 23" fill="none" xmlns="http://www.w3.org/2000/svg">
<g clip-path="url(#clip0_1_297)">
<path d="M17.3724 6.25046L18.7533 4.6625L17.1752 3.27292L15.7943 4.76121C14.4486 3.7565 12.8726 3.11008 11.2124 2.88192L11.16 2.87617V1.983H13.6248V-0.00170898H6.62381V1.983H9.08857V2.97487C3.97524 3.44446 0 7.73779 0 12.9665C0 18.5066 4.46286 22.9973 9.96857 22.9973C15.4743 22.9973 19.9371 18.5066 19.9371 12.9665C19.9371 10.379 18.9638 8.01954 17.3648 6.24088L17.3724 6.2495V6.25046ZM10.0752 20.4395C9.07819 20.4395 8.09091 20.2419 7.16976 19.858C6.24861 19.4741 5.41163 18.9113 4.70661 18.2019C4.0016 17.4925 3.44235 16.6503 3.06079 15.7233C2.67924 14.7964 2.48286 13.803 2.48286 12.7997C2.48286 11.7964 2.67924 10.803 3.06079 9.87607C3.44235 8.94916 4.0016 8.10695 4.70661 7.39753C5.41163 6.68811 6.24861 6.12536 7.16976 5.74142C8.09091 5.35749 9.07819 5.15988 10.0752 5.15988C12.1111 5.17377 14.0596 5.99386 15.499 7.44263C16.2182 8.15291 16.7892 9.00048 17.1785 9.93568C17.5679 10.8709 17.7679 11.8749 17.7667 12.8888V12.9003V12.8994C17.6019 17.0653 14.2324 20.3859 10.081 20.4405H10.0752V20.4395Z" fill="white"/>
<path d="M9.08953 6.94604H11.16V14.5859H9.08953V6.94604Z" fill="white"/>
</g>
<defs>
<clipPath id="clip0_1_297">
<rect width="20" height="23" fill="white"/>
</clipPath>
</defs>
</svg>
