<svg width="24" height="24" viewBox="0 0 24 24" fill="none" xmlns="http://www.w3.org/2000/svg">
<g clip-path="url(#clip0_1_803)">
<path d="M17 4C18.106 4 18.955 4.843 19.584 5.75L19.797 6.071L19.992 6.391C20.054 6.495 20.113 6.599 20.17 6.699C20.957 8.106 21.642 9.943 22.095 11.758C22.545 13.559 22.794 15.44 22.635 16.919C22.475 18.404 21.71 20 20 20C18.466 20 17.257 19.18 16.275 18.379L15.165 17.448C14.242 16.692 13.232 16 12 16C10.768 16 9.757 16.692 8.836 17.448L7.726 18.378C6.742 19.18 5.533 20 4 20C2.289 20 1.524 18.404 1.365 16.919C1.207 15.439 1.455 13.559 1.905 11.757C2.358 9.943 3.043 8.107 3.83 6.699L4.008 6.39L4.203 6.071L4.416 5.75C5.045 4.843 5.894 4 7 4C7.51 4 8.017 4.124 8.515 4.27L9.108 4.452C9.206 4.482 9.303 4.511 9.4 4.538C10.265 4.786 11.15 5 12 5C12.85 5 13.735 4.786 14.6 4.538L15.485 4.271C15.983 4.124 16.49 4 17 4ZM8.5 8C7.83696 8 7.20107 8.26339 6.73223 8.73223C6.26339 9.20107 6 9.83696 6 10.5C6 11.163 6.26339 11.7989 6.73223 12.2678C7.20107 12.7366 7.83696 13 8.5 13C9.16304 13 9.79893 12.7366 10.2678 12.2678C10.7366 11.7989 11 11.163 11 10.5C11 9.83696 10.7366 9.20107 10.2678 8.73223C9.79893 8.26339 9.16304 8 8.5 8ZM15.5 8C15.2348 8 14.9804 8.10536 14.7929 8.29289C14.6054 8.48043 14.5 8.73478 14.5 9V9.5H14C13.7348 9.5 13.4804 9.60536 13.2929 9.79289C13.1054 9.98043 13 10.2348 13 10.5C13 10.7652 13.1054 11.0196 13.2929 11.2071C13.4804 11.3946 13.7348 11.5 14 11.5H14.5V12C14.5 12.2652 14.6054 12.5196 14.7929 12.7071C14.9804 12.8946 15.2348 13 15.5 13C15.7652 13 16.0196 12.8946 16.2071 12.7071C16.3946 12.5196 16.5 12.2652 16.5 12V11.5H17C17.2652 11.5 17.5196 11.3946 17.7071 11.2071C17.8946 11.0196 18 10.7652 18 10.5C18 10.2348 17.8946 9.98043 17.7071 9.79289C17.5196 9.60536 17.2652 9.5 17 9.5H16.5V9C16.5 8.73478 16.3946 8.48043 16.2071 8.29289C16.0196 8.10536 15.7652 8 15.5 8ZM8.5 10C8.63261 10 8.75979 10.0527 8.85355 10.1464C8.94732 10.2402 9 10.3674 9 10.5C9 10.6326 8.94732 10.7598 8.85355 10.8536C8.75979 10.9473 8.63261 11 8.5 11C8.36739 11 8.24021 10.9473 8.14645 10.8536C8.05268 10.7598 8 10.6326 8 10.5C8 10.3674 8.05268 10.2402 8.14645 10.1464C8.24021 10.0527 8.36739 10 8.5 10Z" fill="white"/>
</g>
<defs>
<clipPath id="clip0_1_803">
<rect width="24" height="24" fill="white"/>
</clipPath>
</defs>
</svg>
