<svg width="11" height="13" viewBox="0 0 11 13" fill="none" xmlns="http://www.w3.org/2000/svg">
<path d="M1.33328 6.49999C1.17541 6.49999 1.02401 6.5627 0.912378 6.67433C0.80075 6.78596 0.738037 6.93736 0.738037 7.09523V11.8571C0.738037 12.015 0.80075 12.1664 0.912378 12.278C1.02401 12.3897 1.17541 12.4524 1.33328 12.4524C1.49114 12.4524 1.64254 12.3897 1.75417 12.278C1.8658 12.1664 1.92851 12.015 1.92851 11.8571V7.09523C1.92851 6.93736 1.8658 6.78596 1.75417 6.67433C1.64254 6.5627 1.49114 6.49999 1.33328 6.49999ZM4.30947 0.547607C4.1516 0.547607 4.0002 0.61032 3.88857 0.721949C3.77694 0.833577 3.71423 0.984979 3.71423 1.14285V11.8571C3.71423 12.015 3.77694 12.1664 3.88857 12.278C4.0002 12.3897 4.1516 12.4524 4.30947 12.4524C4.46733 12.4524 4.61873 12.3897 4.73036 12.278C4.84199 12.1664 4.9047 12.015 4.9047 11.8571V1.14285C4.9047 0.984979 4.84199 0.833577 4.73036 0.721949C4.61873 0.61032 4.46733 0.547607 4.30947 0.547607ZM10.2618 8.88094C10.104 8.88094 9.95258 8.94365 9.84095 9.05528C9.72932 9.16691 9.66661 9.31831 9.66661 9.47618V11.8571C9.66661 12.015 9.72932 12.1664 9.84095 12.278C9.95258 12.3897 10.104 12.4524 10.2618 12.4524C10.4197 12.4524 10.5711 12.3897 10.6827 12.278C10.7944 12.1664 10.8571 12.015 10.8571 11.8571V9.47618C10.8571 9.31831 10.7944 9.16691 10.6827 9.05528C10.5711 8.94365 10.4197 8.88094 10.2618 8.88094ZM7.28566 4.11904C7.12779 4.11904 6.97639 4.18175 6.86476 4.29338C6.75313 4.40501 6.69042 4.55641 6.69042 4.71427V11.8571C6.69042 12.015 6.75313 12.1664 6.86476 12.278C6.97639 12.3897 7.12779 12.4524 7.28566 12.4524C7.44352 12.4524 7.59492 12.3897 7.70655 12.278C7.81818 12.1664 7.88089 12.015 7.88089 11.8571V4.71427C7.88089 4.55641 7.81818 4.40501 7.70655 4.29338C7.59492 4.18175 7.44352 4.11904 7.28566 4.11904Z" fill="#2A384E"/>
</svg>
