<svg width="13" height="18" viewBox="0 0 13 18" fill="none" xmlns="http://www.w3.org/2000/svg">
<path d="M0.313065 4.01785C0.908648 2.18051 2.76136 0.218925 5.27818 0.0306435C6.22791 -0.0404423 7.17316 0.0056674 8.10496 0.237496C10.103 0.735737 11.3378 2.04538 12.112 3.90193C12.8639 5.70277 12.5424 7.40627 11.7002 9.04316C10.7358 10.9183 9.68357 12.7486 8.67172 14.6013C8.09983 15.649 7.52794 16.6967 6.96694 17.7496C6.86896 17.934 6.75881 18.0019 6.54619 18C5.27818 17.9884 4.00952 17.9942 2.74919 17.9942L5.92884 12.1914C4.02745 11.7431 2.34253 11.0387 1.11998 9.5081C2.42066 10.8139 3.9711 11.4101 5.80908 11.1117C7.21286 10.8831 8.32782 10.1511 9.13922 8.98104C10.6954 6.72423 10.1338 3.62335 7.92436 2.00824C5.69573 0.379027 1.86478 0.768398 0.313065 4.01785Z" fill="white"/>
<path d="M3.68071 10.4026C3.79214 10.4833 3.89332 10.6082 4.01692 10.6383C4.9135 10.8567 5.78894 10.7612 6.65222 10.4711C6.72815 10.4426 6.80579 10.4189 6.88469 10.4001C5.55775 11.1993 3.2606 11.2255 1.57631 9.71353C-0.0829927 8.22393 -0.481329 5.76795 0.615697 3.7513C1.58272 1.97607 3.82224 0.950775 5.59426 1.42724C5.1338 1.4631 4.61379 1.50409 4.09377 1.5438C3.86899 1.56045 3.70953 1.66868 3.64548 1.88514C3.53021 2.25337 3.27405 2.45062 2.91221 2.56141C2.60674 2.65235 2.31471 2.87841 2.01564 2.88162C1.42518 2.88162 1.28108 3.34015 1.04349 3.6943C0.693186 4.21944 0.481851 4.80734 0.391552 5.54125C0.620179 5.33183 0.779002 5.18582 0.967923 5.01483C1.26251 5.30109 1.56158 5.58416 1.84785 5.87938C1.89608 5.94616 1.91673 6.02897 1.90549 6.11057C1.85297 6.64083 1.78829 7.16917 1.73257 7.6988C1.71144 7.89988 1.63715 8.02925 1.41237 8.06319C1.23946 8.08945 1.07423 8.16373 0.816786 8.24443C1.12098 8.63764 1.36434 8.99627 1.64932 9.3152C2.11309 9.82131 2.69316 10.2068 3.33937 10.4385C3.43607 10.4743 3.56671 10.418 3.68135 10.4045L3.68071 10.4026Z" fill="#D23D2B"/>
<path d="M5.44794 3.5675C5.73549 3.5675 6.02431 3.57454 6.31058 3.5675C6.48605 3.56109 6.55009 3.64243 6.58147 3.80317C6.68138 4.3155 6.80177 4.8227 6.89271 5.33632C6.89417 5.3879 6.88332 5.4391 6.86104 5.48565C6.83877 5.5322 6.80572 5.57278 6.76463 5.60401C6.26084 5.88109 5.75043 6.14644 5.23341 6.40004C5.18324 6.41695 5.12979 6.42182 5.07739 6.41425C5.02499 6.40669 4.97511 6.3869 4.93177 6.35649C4.57442 6.05358 4.23692 5.72697 3.8847 5.41765C3.75085 5.29981 3.73612 5.1935 3.81233 5.0334C4.01022 4.60945 4.17801 4.17077 4.38294 3.74937C4.41579 3.69818 4.45917 3.65457 4.51018 3.62145C4.5612 3.58832 4.61868 3.56644 4.67881 3.55725" fill="#D23D2B"/>
<path d="M3.68177 10.4033C3.70226 10.3214 3.75542 10.2311 3.73685 10.1593C3.67281 9.90318 3.57931 9.65342 3.48068 9.3473C3.88158 9.20193 4.28568 9.08153 4.66673 8.9099C4.9722 8.77221 5.2194 8.79591 5.49029 8.98547C5.77528 9.18464 6.08588 9.34666 6.40608 9.53687C6.22677 9.85707 6.07307 10.1574 5.88671 10.4379C5.83804 10.5109 5.68562 10.5532 5.58444 10.5468C4.94979 10.509 4.31642 10.4527 3.68241 10.4027L3.68177 10.4033Z" fill="#D23D2B"/>
<path d="M9.53862 5.8429C9.62381 6.4849 9.55802 7.13793 9.34649 7.75004C9.1723 8.24444 9.09033 8.27774 8.5479 8.09074C8.51908 7.60403 8.48386 7.10707 8.46721 6.60947C8.46868 6.56571 8.47971 6.5228 8.49951 6.48375C8.51931 6.4447 8.54741 6.41045 8.58184 6.3834C8.87899 6.20089 9.18767 6.03822 9.53862 5.8429Z" fill="#D23D2B"/>
<path d="M6.85715 1.82117C7.50845 2.11319 8.0624 2.50577 8.51261 3.10199C7.71978 2.95598 7.10883 2.64602 6.85715 1.82117Z" fill="#D23D2B"/>
<path d="M1.87166 6.12614L3.76856 5.24365" stroke="#D23D2B" stroke-miterlimit="10"/>
<path d="M5.08719 6.3999V8.84051" stroke="#D23D2B" stroke-miterlimit="10"/>
<path d="M6.34026 9.56365C6.34026 9.56365 7.71778 9.05836 8.5817 8.0542" stroke="#D23D2B" stroke-miterlimit="10"/>
<path d="M3.51077 9.36693C3.51077 9.36693 2.08521 8.55681 1.6017 7.93433" stroke="#D23D2B" stroke-miterlimit="10"/>
<path d="M8.5064 6.5351C8.5064 6.5351 7.53874 5.67503 6.84773 5.47522" stroke="#D23D2B" stroke-miterlimit="10"/>
<path d="M6.47879 3.64246C6.47879 3.64246 7.0161 3.02894 7.33374 2.57874" stroke="#D23D2B" stroke-miterlimit="10"/>
<path d="M4.52857 3.63861C4.52857 3.63861 3.37582 2.39685 3.27016 2.35779" stroke="#D23D2B" stroke-miterlimit="10"/>
</svg>
