<svg width="116" height="35" viewBox="0 0 116 35" fill="none" xmlns="http://www.w3.org/2000/svg">
<path d="M57.2469 9.67283H62.7331C64.0839 9.67283 64.0814 9.67283 64.0814 10.9731C64.0814 13.7059 64.0814 16.4388 64.2245 19.2236C64.3186 19.0522 64.4228 18.8832 64.507 18.7071C65.8389 15.908 67.181 13.1125 68.4878 10.3028C68.7063 9.83004 68.9787 9.65864 69.5185 9.67046C70.9597 9.7012 72.406 9.71065 73.8447 9.67046C74.4636 9.65037 74.6192 9.86668 74.6444 10.4033C74.7699 13.135 74.9344 15.8655 75.0863 18.5971C75.095 18.7473 75.1151 18.8974 75.1465 19.2248C75.3022 18.96 75.3876 18.8465 75.4415 18.7201C76.6492 15.8631 77.8482 13.0132 79.0747 10.1764C79.1626 9.97188 79.4513 9.70356 79.6534 9.70356C81.6621 9.66928 83.6707 9.68347 85.6731 9.68701C85.7875 9.70252 85.9001 9.72784 86.0095 9.76266C85.6329 10.5109 85.2689 11.2331 84.8985 11.9506C82.3576 16.8655 79.8041 21.7744 77.2857 26.6999C77.0083 27.2425 76.6894 27.4269 76.0542 27.4091C74.446 27.3607 72.8341 27.3666 71.2259 27.4091C70.6308 27.4245 70.4513 27.2602 70.4149 26.6999C70.2454 24.129 70.0245 21.5605 69.8198 18.9919C69.8123 18.9021 69.791 18.8123 69.7445 18.5428C69.5625 18.9659 69.4583 19.2354 69.3315 19.4943C68.1213 21.9765 66.9161 24.4659 65.6808 26.9411C65.5816 27.1396 65.2765 27.3725 65.0631 27.376C63.1411 27.408 61.2178 27.3938 59.2945 27.3902C59.1973 27.3799 59.1012 27.3621 59.007 27.337C58.422 21.4742 57.8382 15.6232 57.2469 9.67283Z" fill="#D23D2B"/>
<path d="M55.8033 10.1115C54.7249 15.8561 52.9259 21.4507 53.0841 27.3596H46.7644V25.7131C46.4894 25.94 46.2936 26.1043 46.0952 26.2651C44.9112 27.2565 43.3774 27.7972 41.7929 27.7816C41.0397 27.7816 40.2789 27.8159 39.542 27.7071C37.0877 27.3407 35.3213 25.5913 34.9435 23.1043C34.1136 17.6398 37.3287 10.3124 46.1806 9.37389C49.2312 9.05001 52.2706 9.19659 55.2547 9.9519C55.4141 9.99209 55.571 10.0441 55.8033 10.1115ZM48.4592 13.3881C47.1422 13.0488 46.2132 13.4602 45.3822 14.0252C43.2994 15.4436 42.2725 17.453 41.9172 19.8029C41.7766 20.732 41.8093 21.6504 42.26 22.5074C42.8061 23.5464 43.5342 23.7131 44.5122 23.0322C45.4403 22.4084 46.1257 21.5153 46.4631 20.4897C47.1849 18.1646 47.7825 15.8041 48.4592 13.3881Z" fill="white"/>
<path d="M103.797 9.76764C103.774 10.1494 103.748 10.5501 103.717 11.0679L104.607 10.5029C105.873 9.68318 107.378 9.2544 108.914 9.27592C109.707 9.28774 110.51 9.25228 111.288 9.36339C113.357 9.65771 114.66 10.9816 114.938 12.9437C115.189 14.7511 114.821 16.5099 114.476 18.2629C113.917 21.0997 113.335 23.9366 112.779 26.7817C112.694 27.2132 112.539 27.4094 112.025 27.4011C110.023 27.3704 108.019 27.3881 105.903 27.3881C106.071 26.5063 106.227 25.686 106.385 24.8669C106.921 22.1009 107.483 19.3397 107.975 16.5678C108.081 15.9265 108.058 15.2723 107.909 14.6388C107.658 13.5407 106.853 13.2794 105.873 13.9C104.523 14.7546 103.712 16.0194 103.296 17.4307C102.713 19.3964 102.332 21.4118 101.889 23.4153C101.628 24.5891 101.421 25.7735 101.154 26.9449C101.115 27.1151 100.874 27.3716 100.723 27.3739C98.6364 27.4023 96.5499 27.3928 94.368 27.3928C94.4383 26.9413 94.4848 26.5418 94.5639 26.1482C95.4339 21.7617 96.3215 17.3764 97.1776 12.9887C97.3685 12.0229 97.4852 11.0442 97.6723 10.0773C97.7011 9.92603 97.9233 9.69436 98.064 9.69317C99.9232 9.67544 101.782 9.69317 103.642 9.70145C103.678 9.69672 103.713 9.72864 103.797 9.76764Z" fill="#D23D2B"/>
<path d="M0.613159 7.5455C1.78069 4.15426 5.41257 0.533714 10.3463 0.186198C12.2081 0.0549932 14.0611 0.140099 15.8877 0.567993C19.8045 1.48761 22.225 3.90486 23.7427 7.33155C25.2166 10.6554 24.5864 13.7996 22.9355 16.8209C21.0449 20.2818 18.9823 23.6601 16.9987 27.0797C15.8776 29.0135 14.7566 30.9473 13.6568 32.8905C13.4647 33.2309 13.2488 33.3562 12.832 33.3527C10.3463 33.3314 7.85936 33.3421 5.38872 33.3421L11.6218 22.6317C7.89451 21.8043 4.59154 20.5041 2.19497 17.679C4.7447 20.0892 7.78403 21.1896 11.387 20.6388C14.1389 20.2168 16.3246 18.8658 17.9152 16.7062C20.9658 12.5407 19.8648 6.81737 15.5337 3.8363C11.1648 0.829221 3.65501 1.54789 0.613159 7.5455Z" fill="white"/>
<path d="M19.6714 34.7026C19.8874 33.3787 20.0958 32.1021 20.2992 30.8598C20.8252 30.8326 21.3035 30.7605 21.7642 30.7924C22.6518 30.8527 23.2632 30.4082 23.5594 29.7451C24.0208 28.7377 24.3717 27.6885 24.6064 26.6139C25.7363 21.1317 26.8109 15.6376 27.9019 10.1483C27.9571 9.87053 27.9785 9.62467 28.404 9.62821C30.4328 9.64712 32.4603 9.63649 34.4877 9.63885C34.5904 9.64935 34.692 9.66753 34.7915 9.69322C34.5744 10.7878 34.3622 11.8658 34.1463 12.9438C33.1419 17.9284 32.1703 22.9201 31.1132 27.8953C30.8368 29.1047 30.4304 30.2845 29.9005 31.4165C28.8962 33.6387 26.9741 34.7546 24.4683 34.9307C23.2255 35.0193 21.9663 34.9224 20.7147 34.8846C20.3921 34.881 20.0707 34.7747 19.6714 34.7026Z" fill="white"/>
<path d="M94.3241 10.2262C93.2018 15.788 92.077 21.3486 90.9496 26.9081C90.8781 27.2627 90.7324 27.401 90.3332 27.3963C88.7464 27.3774 87.1583 27.3892 85.5702 27.3904H84.8082V27.4057H84.139C84.1395 27.2753 84.1521 27.1452 84.1767 27.0169C85.2563 21.6079 86.3485 16.2017 87.4533 10.7983C87.6818 9.67179 87.6906 9.67297 88.902 9.67297H93.8534C93.9965 9.67297 94.1383 9.6907 94.3292 9.70371C94.3438 9.87766 94.3421 10.0525 94.3241 10.2262Z" fill="#D23D2B"/>
<path d="M28.6426 4.86842C28.6426 3.13793 29.9557 1.91335 31.8162 1.91335C33.5286 1.90744 34.6723 3.02328 34.6748 4.70176C34.6748 6.4287 33.3252 7.63082 31.3932 7.61663C29.7335 7.60245 28.6401 6.51262 28.6426 4.86842Z" fill="white"/>
<path d="M91.7292 1.79846C93.3198 1.79846 94.4409 2.82801 94.4396 4.29609C94.4396 6.09986 93.0825 7.35517 91.1379 7.35754C89.5134 7.35754 88.4476 6.36345 88.4601 4.85518C88.4739 3.10933 89.8699 1.80437 91.7292 1.79846Z" fill="#D23D2B"/>
<path d="M7.21533 19.3301C7.43377 19.479 7.63212 19.7095 7.87441 19.7651C9.63198 20.1682 11.3481 19.992 13.0404 19.4566C13.1893 19.404 13.3415 19.3601 13.4961 19.3254C10.8949 20.8005 6.39178 20.849 3.09006 18.0582C-0.162691 15.3088 -0.943553 10.7758 1.20696 7.05357C3.10262 3.77699 7.49277 1.88456 10.9665 2.76399C10.0638 2.83018 9.04445 2.90583 8.02506 2.97912C7.58441 3.00985 7.27182 3.20961 7.14628 3.60914C6.9203 4.2888 6.41814 4.65287 5.70884 4.85736C5.11001 5.02521 4.53755 5.44246 3.95127 5.44837C2.79379 5.44837 2.51132 6.2947 2.04557 6.94837C1.35886 7.91763 0.944576 9.00273 0.767564 10.3573C1.21574 9.97081 1.52708 9.70131 1.89743 9.38571C2.47492 9.91407 3.06119 10.4365 3.62236 10.9814C3.71691 11.1047 3.75738 11.2575 3.73534 11.4082C3.6324 12.3869 3.5056 13.362 3.39638 14.3396C3.35495 14.7107 3.20933 14.9495 2.76868 15.0122C2.42972 15.0606 2.10583 15.1977 1.60115 15.3467C2.19747 16.0724 2.67452 16.7344 3.23318 17.323C4.14232 18.2572 5.27943 18.9688 6.54619 19.3963C6.73576 19.4625 6.99186 19.3585 7.21658 19.3336L7.21533 19.3301Z" fill="#D23D2B"/>
<path d="M10.679 6.71447C11.2427 6.71447 11.8089 6.72747 12.37 6.71447C12.714 6.70265 12.8395 6.85277 12.9011 7.14946C13.0969 8.09508 13.3329 9.03124 13.5112 9.97923C13.5141 10.0744 13.4928 10.1689 13.4491 10.2549C13.4054 10.3408 13.3407 10.4157 13.2601 10.4733C12.2725 10.9847 11.272 11.4745 10.2584 11.9426C10.1601 11.9738 10.0553 11.9828 9.9526 11.9688C9.84988 11.9548 9.7521 11.9183 9.66714 11.8622C8.96662 11.3031 8.30503 10.7003 7.61455 10.1293C7.35217 9.91185 7.3233 9.71564 7.47269 9.42013C7.86061 8.63763 8.18953 7.82794 8.59126 7.05016C8.65566 6.95568 8.74069 6.87519 8.84069 6.81405C8.9407 6.7529 9.05338 6.71251 9.17126 6.69556" fill="#D23D2B"/>
<path d="M7.21652 19.3311C7.2567 19.1798 7.3609 19.0131 7.32449 18.8807C7.19895 18.4079 7.01566 17.9469 6.82233 17.3819C7.60821 17.1136 8.40037 16.8914 9.14734 16.5746C9.74617 16.3204 10.2308 16.3642 10.7618 16.7141C11.3204 17.0817 11.9293 17.3807 12.557 17.7318C12.2055 18.3228 11.9042 18.8772 11.5389 19.3949C11.4435 19.5296 11.1447 19.6077 10.9463 19.5958C9.70223 19.5261 8.46063 19.4221 7.21778 19.3299L7.21652 19.3311Z" fill="#D23D2B"/>
<path d="M18.6986 10.9142C18.8656 12.0992 18.7366 13.3045 18.3219 14.4343C17.9805 15.3468 17.8198 15.4083 16.7564 15.0631C16.7 14.1648 16.6309 13.2475 16.5983 12.3291C16.6012 12.2483 16.6228 12.1691 16.6616 12.097C16.7004 12.025 16.7555 11.9617 16.823 11.9118C17.4055 11.5749 18.0106 11.2747 18.6986 10.9142Z" fill="#D23D2B"/>
<path d="M13.4421 3.49121C14.7189 4.03022 15.8048 4.7548 16.6874 5.85526C15.1332 5.58576 13.9355 5.01366 13.4421 3.49121Z" fill="#D23D2B"/>
<path d="M3.66876 11.4365L7.38727 9.80762" stroke="#D23D2B" stroke-miterlimit="10"/>
<path d="M9.97223 11.9425V16.4472" stroke="#D23D2B" stroke-miterlimit="10"/>
<path d="M12.429 17.7819C12.429 17.7819 15.1294 16.8493 16.8229 14.9958" stroke="#D23D2B" stroke-miterlimit="10"/>
<path d="M6.8814 17.419C6.8814 17.419 4.08687 15.9237 3.13904 14.7748" stroke="#D23D2B" stroke-miterlimit="10"/>
<path d="M16.6751 12.1921C16.6751 12.1921 14.7782 10.6046 13.4236 10.2358" stroke="#D23D2B" stroke-miterlimit="10"/>
<path d="M12.7002 6.85239C12.7002 6.85239 13.7535 5.72 14.3762 4.88904" stroke="#D23D2B" stroke-miterlimit="10"/>
<path d="M8.87745 6.84574C8.87745 6.84574 6.61773 4.55379 6.41058 4.48169" stroke="#D23D2B" stroke-miterlimit="10"/>
</svg>
