<svg width="24" height="24" viewBox="0 0 24 24" fill="none" xmlns="http://www.w3.org/2000/svg">
<path d="M21.7064 8.43384C21.6993 8.3229 21.6502 8.21882 21.5692 8.1427C21.4882 8.06658 21.3813 8.02412 21.2701 8.02392H18.1227V2.84568C18.1227 2.6028 17.9262 2.40648 17.6835 2.40648H6.31665C6.07401 2.40648 5.87745 2.6028 5.87745 2.84568V8.02392H2.73057H2.73009C2.49753 8.02392 2.30913 8.20512 2.29377 8.43384H2.29089V17.2584C2.29096 17.3748 2.33726 17.4865 2.41962 17.5688C2.50198 17.6511 2.61365 17.6974 2.73009 17.6974H5.87745V14.022H18.1225V17.6974H21.2699C21.3863 17.6974 21.498 17.6511 21.5803 17.5688C21.6627 17.4865 21.709 17.3748 21.7091 17.2584V8.43384H21.7064ZM16.9259 9.99144H7.07433V4.04256C7.07433 3.79968 7.27089 3.60336 7.51353 3.60336H16.4864C16.7291 3.60336 16.9256 3.79968 16.9256 4.04256V9.99144H16.9259Z" fill="white"/>
<path d="M7.10449 21.1543C7.10449 21.3972 7.30105 21.5935 7.54369 21.5935H16.4563C16.699 21.5935 16.8955 21.3972 16.8955 21.1543V15.2407H7.10449V21.1543Z" fill="white"/>
</svg>
