<svg width="16" height="16" viewBox="0 0 16 16" fill="none" xmlns="http://www.w3.org/2000/svg">
<g clip-path="url(#clip0_1_281)">
<path d="M8 16C6.91667 16 5.88021 15.7891 4.89062 15.3672C3.90104 14.9453 3.04948 14.3776 2.33594 13.6641C1.6224 12.9505 1.05469 12.099 0.632812 11.1094C0.210938 10.1198 0 9.08333 0 8C0 6.91667 0.210938 5.88021 0.632812 4.89062C1.05469 3.90104 1.6224 3.04948 2.33594 2.33594C3.04948 1.6224 3.90104 1.05469 4.89062 0.632812C5.88021 0.210938 6.91667 0 8 0C9.08333 0 10.1198 0.210938 11.1094 0.632812C12.099 1.05469 12.9505 1.6224 13.6641 2.33594C14.3776 3.04948 14.9453 3.90104 15.3672 4.89062C15.7891 5.88021 16 6.91667 16 8C16 9.08333 15.7891 10.1198 15.3672 11.1094C14.9453 12.099 14.3776 12.9505 13.6641 13.6641C12.9505 14.3776 12.099 14.9453 11.1094 15.3672C10.1198 15.7891 9.08333 16 8 16ZM12.7031 4C12.6406 4.03125 12.5469 4.08854 12.4219 4.17188L12.1172 4.375L11.8281 4.53125L11.5 4.64062C11.1146 4.21354 10.6406 4 10.0781 4C8.85938 4 8.25 4.51042 8.25 5.53125V6.45312C6.57292 6.36979 5.28646 5.75521 4.39062 4.60938C4.13021 4.88021 4 5.17708 4 5.5C4 6.1875 4.25521 6.70833 4.76562 7.0625C4.70312 7.0625 4.61458 7.06771 4.5 7.07812C4.38542 7.08854 4.29427 7.08854 4.22656 7.07812C4.15885 7.06771 4.08333 7.04167 4 7C4 7.47917 4.1276 7.8776 4.38281 8.19531C4.63802 8.51302 4.98958 8.71875 5.4375 8.8125C5.33333 8.9375 5.1875 9 5 9C4.83333 9 4.6875 8.95312 4.5625 8.85938C4.5625 9.26562 4.75781 9.58073 5.14844 9.80469C5.53906 10.0286 5.97917 10.1458 6.46875 10.1562C6.28125 10.4375 6.00781 10.6484 5.64844 10.7891C5.28906 10.9297 4.90625 11 4.5 11C4.35417 11 4.15365 10.9635 3.89844 10.8906C3.64323 10.8177 3.51042 10.7812 3.5 10.7812C3.66667 11.1146 4.00781 11.401 4.52344 11.6406C5.03906 11.8802 5.69271 12 6.48438 12C7.18229 12 7.83333 11.8776 8.4375 11.6328C9.04167 11.388 9.55729 11.0625 9.98438 10.6562C10.4115 10.25 10.7786 9.78646 11.0859 9.26562C11.3932 8.74479 11.6224 8.20573 11.7734 7.64844C11.9245 7.09115 12 6.54167 12 6C12 5.97917 12.0625 5.9349 12.1875 5.86719C12.3125 5.79948 12.4583 5.70833 12.625 5.59375C12.7917 5.47917 12.9167 5.35938 13 5.23438C12.4375 5.23438 12.0625 5.24479 11.875 5.26562C12.2396 5.04688 12.5156 4.625 12.7031 4Z" fill="white"/>
</g>
<defs>
<clipPath id="clip0_1_281">
<rect width="16" height="16" fill="white"/>
</clipPath>
</defs>
</svg>
